<?xml version="1.0" encoding="UTF-8" standalone="no"?>
<!-- Created with Inkscape (http://www.inkscape.org/) -->

<svg
   width="128"
   height="128"
   viewBox="0 0 33.866666 33.866664"
   version="1.1"
   id="svg8"
   xmlns="http://www.w3.org/2000/svg"
   xmlns:svg="http://www.w3.org/2000/svg"
   xmlns:rdf="http://www.w3.org/1999/02/22-rdf-syntax-ns#"
   xmlns:cc="http://creativecommons.org/ns#"
   xmlns:dc="http://purl.org/dc/elements/1.1/">
  <defs
     id="defs2" />
  <metadata
     id="metadata5">
    <rdf:RDF>
      <cc:Work
         rdf:about="">
        <dc:format>image/svg+xml</dc:format>
        <dc:type
           rdf:resource="http://purl.org/dc/dcmitype/StillImage" />
      </cc:Work>
    </rdf:RDF>
  </metadata>
  <g
     id="layer1"
     transform="translate(293.37547,60.480322)">
    <path
       style="color:#000000;font-style:normal;font-variant:normal;font-weight:normal;font-stretch:normal;font-size:medium;line-height:normal;font-family:sans-serif;font-variant-ligatures:normal;font-variant-position:normal;font-variant-caps:normal;font-variant-numeric:normal;font-variant-alternates:normal;font-feature-settings:normal;text-indent:0;text-align:start;text-decoration:none;text-decoration-line:none;text-decoration-style:solid;text-decoration-color:#000000;letter-spacing:normal;word-spacing:normal;text-transform:none;writing-mode:lr-tb;direction:ltr;text-orientation:mixed;dominant-baseline:auto;baseline-shift:baseline;text-anchor:start;white-space:normal;shape-padding:0;clip-rule:nonzero;display:inline;overflow:visible;visibility:visible;isolation:auto;mix-blend-mode:normal;color-interpolation:sRGB;color-interpolation-filters:linearRGB;solid-color:#000000;solid-opacity:1;vector-effect:none;fill:#2b90d9;fill-opacity:1;fill-rule:nonzero;stroke:none;stroke-width:0.648798px;stroke-linecap:butt;stroke-linejoin:miter;stroke-miterlimit:1.5;stroke-dasharray:none;stroke-dashoffset:0;stroke-opacity:1;color-rendering:auto;image-rendering:auto;shape-rendering:auto;text-rendering:auto;enable-background:accumulate"
       d="m -266.79774,-55.269637 c -1.13545,0.0092 -2.27101,0.12446 -3.38027,0.370123 -2.39738,0.52044 -4.65684,1.583445 -6.66606,2.980365 -1.13181,0.784624 -2.18784,1.675131 -3.17696,2.632476 -0.24232,0.07373 -0.50679,0.07787 -0.7562,0.139159 -1.51353,0.295284 -2.95485,0.870725 -4.35387,1.506325 -1.92002,0.883693 -3.75817,1.935244 -5.54948,3.054438 -0.57941,0.364768 -1.15215,0.74008 -1.71699,1.127012 -0.29483,0.130997 -0.21346,0.535655 -0.019,0.719406 0.179,0.257936 0.28086,0.592466 0.53213,0.786888 0.25677,0.09083 0.47284,-0.132559 0.693,-0.227379 1.32276,-0.6901 2.68701,-1.309352 4.10582,-1.775205 0.71131,-0.225808 1.44451,-0.415896 2.19415,-0.438228 0.38677,-0.0039 0.81191,0.04766 1.10493,0.326367 0.15372,0.142618 0.26688,0.332378 0.33023,0.528538 -0.48329,0.301429 -0.97144,0.595798 -1.44916,0.906384 -1.89314,1.212691 -3.72891,2.513619 -5.51747,3.875479 -0.31709,0.171277 -0.31075,0.595796 -0.1445,0.870932 0.085,0.328201 0.22005,0.802311 0.64484,0.780609 0.36496,-0.06623 0.66672,-0.311679 1.00543,-0.452989 2.07589,-1.048229 4.14652,-2.107367 6.19597,-3.206603 0.29757,-0.13393 0.57333,-0.20276 0.75578,-0.03395 0.43999,0.474476 0.90169,0.938048 1.2466,1.489453 0.17931,0.274131 0.15834,0.616949 0.0927,0.923201 -0.0941,0.41831 -0.29169,0.803457 -0.4874,1.181631 -0.27772,0.473233 -0.65569,0.880704 -1.07952,1.226615 -1.10598,0.932318 -2.32981,1.71299 -3.57737,2.44027 -0.19062,0.113103 -0.38873,0.214052 -0.57746,0.329771 -0.24493,0.224238 -0.004,0.536045 0.10997,0.75818 0.12682,0.217129 0.18853,0.561581 0.46532,0.626362 0.29236,-0.0032 0.5373,-0.202368 0.80783,-0.293005 1.91129,-0.848633 3.77932,-1.797704 5.57806,-2.864997 1.19334,-0.713029 2.34137,-1.502516 3.42555,-2.37297 0.47244,-0.372602 0.94907,-0.74982 1.32846,-1.221195 0.19689,-0.24748 0.3952,-0.503001 0.51594,-0.797712 0.0223,-0.17755 0.25369,-0.157178 0.38051,-0.231492 0.82798,-0.277327 1.63478,-0.612383 2.44133,-0.945573 2.43758,-0.952937 4.72994,-2.336945 6.58409,-4.196275 1.17284,-1.171716 2.16297,-2.525366 2.923,-3.998823 0.6868,-1.273997 1.22306,-2.645222 1.43656,-4.082399 0.015,-0.321211 0.14052,-0.679148 -0.0313,-0.977462 -0.2559,-0.233898 -0.61264,-0.299069 -0.91466,-0.454223 -1.66814,-0.658171 -3.46177,-0.977637 -5.25206,-1.007437 -0.0827,-0.0016 -0.16585,-0.0016 -0.24813,-0.0024 z"
       id="path1270" />
  </g>
</svg>
